HIERARCHY
ROOT SpineBase
{
  OFFSET 0.000000 0.000000 0.000000
  CHANNELS 6 Xposition Yposition Zposition Zrotation Xrotation Yrotation
  JOINT SpineMid
  {
    OFFSET 0.000000 32.334485 0.000000
    CHANNELS 3 Zrotation Xrotation Yrotation
    JOINT SpineShoulder
    {
      OFFSET -0.180329 23.703574 -0.879682
      CHANNELS 3 Zrotation Xrotation Yrotation
      JOINT Neck
      {
        OFFSET -0.152577 7.758389 -0.583515
        CHANNELS 3 Zrotation Xrotation Yrotation
        JOINT Head
        {
          OFFSET 6.724973 9.403502 3.228110
          CHANNELS 3 Zrotation Xrotation Yrotation
          End Site
          {
            OFFSET 0 0 0
          }
        }
      }
      JOINT ShoulderLeft
      {
        OFFSET -7.860380 -3.675424 -12.730760
        CHANNELS 3 Zrotation Xrotation Yrotation
        JOINT ElbowLeft
        {
          OFFSET -1.075750 -23.762228 -6.937430
          CHANNELS 3 Zrotation Xrotation Yrotation
          JOINT WristLeft
          {
            OFFSET 5.426085 -19.456463 -2.531113
            CHANNELS 3 Zrotation Xrotation Yrotation
            JOINT HandLeft
            {
              OFFSET 0.933529 -7.577189 0.403188
              CHANNELS 3 Zrotation Xrotation Yrotation
              JOINT HandTipLeft
              {
                OFFSET 1.735930 -6.281590 -0.859706
                CHANNELS 3 Zrotation Xrotation Yrotation
                End Site
                {
                  OFFSET 0 0 0
                }
              }
              JOINT ThumbLeft
              {
                OFFSET -2.717289 1.327461 5.498788
                CHANNELS 3 Zrotation Xrotation Yrotation
                End Site
                {
                  OFFSET 0 0 0
                }
              }
            }
          }
        }
      }
      JOINT ShoulderRight
      {
        OFFSET 6.830026 -3.121802 -19.209552
        CHANNELS 3 Zrotation Xrotation Yrotation
        JOINT ElbowRight
        {
          OFFSET 4.895885 -19.225414 14.333817
          CHANNELS 3 Zrotation Xrotation Yrotation
          JOINT WristRight
          {
            OFFSET 9.860610 -20.854303 13.575903
            CHANNELS 3 Zrotation Xrotation Yrotation
            JOINT HandRight
            {
              OFFSET 4.909478 -9.728119 8.807994
              CHANNELS 3 Zrotation Xrotation Yrotation
              JOINT HandTipRight
              {
                OFFSET 1.471653 -4.491097 0.496930
                CHANNELS 3 Zrotation Xrotation Yrotation
                End Site
                {
                  OFFSET 0 0 0
                }
              }
              JOINT ThumbRight
              {
                OFFSET -4.649311 0.109313 -0.839534
                CHANNELS 3 Zrotation Xrotation Yrotation
                End Site
                {
                  OFFSET 0 0 0
                }
              }
            }
          }
        }
      }
    }
  }
  JOINT HipLeft
  {
    OFFSET -7.336701 1.109758 -7.012417
    CHANNELS 3 Zrotation Xrotation Yrotation
    JOINT KneeLeft
    {
      OFFSET 0.242138 -29.921240 1.434316
      CHANNELS 3 Zrotation Xrotation Yrotation
      JOINT AnkleLeft
      {
        OFFSET -5.519985 -33.138804 3.270595
        CHANNELS 3 Zrotation Xrotation Yrotation
        JOINT FootLeft
        {
          OFFSET 6.008019 -6.467496 0.704927
          CHANNELS 3 Zrotation Xrotation Yrotation
          End Site
          {
            OFFSET 0 0 0
          }
        }
      }
    }
  }
  JOINT HipRight
  {
    OFFSET 5.828408 0.662870 0.016815
    CHANNELS 3 Zrotation Xrotation Yrotation
    JOINT KneeRight
    {
      OFFSET -5.222486 -41.122705 9.320862
      CHANNELS 3 Zrotation Xrotation Yrotation
      JOINT AnkleRight
      {
        OFFSET -2.961909 -27.066130 3.201912
        CHANNELS 3 Zrotation Xrotation Yrotation
        JOINT FootRight
        {
          OFFSET 3.038454 -4.465695 -8.554250
          CHANNELS 3 Zrotation Xrotation Yrotation
          End Site
          {
            OFFSET 0 0 0
          }
        }
      }
    }
  }
}
MOTION
Frames: 13
Frame Time: 0.033333
69.533272 73.782228 344.950608 -4.474155 0.996662 -40.559636 -0.276106 0.156067 40.449271 -0.189959 -0.229024 -0.189957 -3.493836 9.843802 -3.657597 0.000000 0.000000 0.000000 10.361656 1.698816 -1.400892 -6.353877 -8.880939 -0.030232 10.212306 5.354123 0.972619 -19.407186 -10.359116 -3.014507 0.000000 0.000000 0.000000 0.000000 0.000000 0.000000 0.933551 -3.947490 -3.361292 4.315142 -25.158104 -8.754807 -27.430228 41.489707 24.239713 74.269865 35.254611 16.733580 0.000000 0.000000 0.000000 0.000000 0.000000 0.000000 6.656358 -5.772161 40.390982 -0.376256 6.949334 0.233792 -18.523680 18.707838 22.660694 0.000000 0.000000 0.000000 7.244883 6.867360 41.330545 3.195321 -11.680707 2.024203 -12.889727 -10.792999 -12.841304 0.000000 0.000000 0.000000
70.270618 73.655694 345.528322 -4.237414 0.765012 -40.423103 -0.200521 0.189348 40.311078 -0.155341 -0.233390 -0.177155 -5.729863 10.187800 -2.932196 0.000000 0.000000 0.000000 10.409039 1.619037 -1.548622 -6.282187 -8.052703 0.212734 10.894132 1.950421 0.863254 -20.244347 -9.992777 -2.854952 0.000000 0.000000 0.000000 0.000000 0.000000 0.000000 0.577461 -3.689837 -3.381616 4.317300 -25.155333 -8.753166 -27.439420 41.453963 24.195144 74.894855 34.862729 16.741999 0.000000 0.000000 0.000000 0.000000 0.000000 0.000000 4.988324 -5.855496 40.163096 0.261783 6.423881 0.160320 -15.228386 17.101699 20.011297 0.000000 0.000000 0.000000 8.742153 5.238178 41.494042 1.277141 -5.960249 0.523254 -8.518907 -8.163110 -12.227759 0.000000 0.000000 0.000000
70.941473 73.552558 346.046281 -3.978783 0.560353 -40.383063 -0.229846 0.188202 40.269529 -0.164112 -0.226744 -0.170015 -6.171173 10.205406 -2.744089 0.000000 0.000000 0.000000 10.525434 1.416691 -1.655848 -5.928873 -8.464325 0.065736 11.080060 2.129741 1.019189 -20.724400 -10.041516 -2.901037 0.000000 0.000000 0.000000 0.000000 0.000000 0.000000 0.345860 -3.511511 -3.394151 4.319108 -25.153263 -8.751971 -27.442259 41.428945 24.164373 74.398091 34.792551 16.816193 0.000000 0.000000 0.000000 0.000000 0.000000 0.000000 3.602572 -5.959316 40.050714 0.752336 6.079935 0.098587 -9.793263 15.249147 16.874098 0.000000 0.000000 0.000000 8.652996 4.136057 41.491575 1.570592 -3.163427 0.091703 -8.655259 -10.881702 -12.332899 0.000000 0.000000 0.000000
71.508466 73.558952 346.495827 -3.758143 0.393670 -40.570209 -0.245685 0.176227 40.455867 -0.170575 -0.227070 -0.164192 -6.252770 9.933463 -2.532009 0.000000 0.000000 0.000000 10.729747 1.149071 -1.770026 -5.446445 -8.546227 0.005341 10.676259 1.151918 1.178630 -20.073553 -8.798622 -2.498772 0.000000 0.000000 0.000000 0.000000 0.000000 0.000000 0.146349 -3.346780 -3.403656 4.319856 -25.151404 -8.751415 -27.417287 41.404050 24.134035 74.590161 34.809746 16.767203 0.000000 0.000000 0.000000 0.000000 0.000000 0.000000 2.610057 -6.061571 40.186089 1.166779 5.895717 0.053989 -6.908846 13.204464 14.270498 0.000000 0.000000 0.000000 7.874755 3.666130 41.574692 2.318230 -2.547787 0.135524 -8.765769 -9.279813 -9.528522 0.000000 0.000000 0.000000
71.899383 73.628900 346.819196 -3.578028 0.246640 -40.656758 -0.264254 0.163308 40.541639 -0.186542 -0.222622 -0.160419 -7.534817 10.404287 -2.244241 0.000000 0.000000 0.000000 11.258911 0.669829 -1.937015 -5.335942 -8.607593 -0.016994 9.872926 0.066578 1.345050 -19.585504 -7.247320 -1.937391 0.000000 0.000000 0.000000 0.000000 0.000000 0.000000 0.001450 -3.206827 -3.408849 4.320031 -25.150537 -8.751324 -27.403314 41.397344 24.126525 74.426119 34.687185 16.803516 0.000000 0.000000 0.000000 0.000000 0.000000 0.000000 1.945939 -6.100646 40.241731 1.645903 5.639625 0.043856 -14.691108 19.069808 23.250671 0.000000 0.000000 0.000000 5.709978 4.154410 41.280915 4.225570 -5.621720 1.103840 -9.935401 -7.927769 -8.725893 0.000000 0.000000 0.000000
72.204178 73.726260 347.047224 -3.485980 0.172020 -40.786082 -0.259616 0.151398 40.670550 -0.193165 -0.224987 -0.158420 -8.577151 10.735511 -1.978356 0.000000 0.000000 0.000000 11.681385 0.235233 -2.049306 -5.000830 -9.051871 -0.163852 8.472173 0.095212 1.591177 -19.520820 -8.789428 -2.417693 0.000000 0.000000 0.000000 0.000000 0.000000 0.000000 -0.082533 -3.118059 -3.411648 4.320347 -25.149684 -8.751096 -27.398441 41.391355 24.119656 74.468328 34.655320 16.801823 0.000000 0.000000 0.000000 0.000000 0.000000 0.000000 1.584259 -6.173860 40.351088 1.954144 5.619950 0.028814 -26.565332 24.914231 37.065696 0.000000 0.000000 0.000000 4.661590 4.240756 41.228880 5.277115 -6.970249 1.600848 -12.019729 -3.662935 -0.846812 0.000000 0.000000 0.000000
72.457985 73.804207 347.213460 -3.406068 0.076949 -40.869293 -0.294862 0.152125 40.752906 -0.195621 -0.220166 -0.156921 -9.100564 10.845495 -1.801970 0.000000 0.000000 0.000000 12.080909 -0.248364 -2.134412 -4.667058 -9.393119 -0.302697 7.140152 0.018931 1.841082 -20.280152 -9.043004 -2.311294 0.000000 0.000000 0.000000 0.000000 0.000000 0.000000 -0.135552 -3.052079 -3.412865 4.320637 -25.148993 -8.750914 -27.402583 41.390079 24.118456 74.556921 34.648225 16.796102 0.000000 0.000000 0.000000 0.000000 0.000000 0.000000 1.201752 -6.255297 40.411173 2.185566 5.591258 0.017581 -32.154220 25.699804 42.047116 0.000000 0.000000 0.000000 4.026839 4.262646 41.209583 5.780138 -7.431404 1.816666 -12.158815 -0.478117 1.916630 0.000000 0.000000 0.000000
72.620089 73.906049 347.286659 -3.361438 0.021674 -40.906402 -0.330997 0.144153 40.789014 -0.212809 -0.203910 -0.157342 -9.636350 11.012163 -1.656617 0.000000 0.000000 0.000000 12.474380 -0.679523 -2.197972 -4.450499 -9.670178 -0.407202 6.126291 -0.547522 2.034302 -18.890508 -9.269271 -2.527673 0.000000 0.000000 0.000000 0.000000 0.000000 0.000000 -0.130902 -3.031013 -3.411537 4.320499 -25.148427 -8.750889 -27.403345 41.389053 24.117277 74.605940 34.647697 16.791041 0.000000 0.000000 0.000000 0.000000 0.000000 0.000000 0.944855 -6.333945 40.430739 2.282135 5.566421 0.012347 -40.412181 26.120621 49.540218 0.000000 0.000000 0.000000 3.690691 4.270287 41.193170 6.035585 -7.803686 1.952981 -11.986758 0.432878 2.009144 0.000000 0.000000 0.000000
72.738991 73.997935 347.318196 -3.330612 0.019658 -41.185806 -0.359589 0.123174 41.068248 -0.236304 -0.187698 -0.158472 -10.340042 11.415414 -1.586032 0.000000 0.000000 0.000000 12.781632 -1.051016 -2.231565 -4.373985 -9.891340 -0.490329 5.216148 -1.355164 2.160922 -17.635780 -10.318478 -3.043629 0.000000 0.000000 0.000000 0.000000 0.000000 0.000000 -0.103887 -3.049128 -3.410160 4.320020 -25.147963 -8.750979 -27.401865 41.387219 24.114796 74.651489 34.692051 16.774574 0.000000 0.000000 0.000000 0.000000 0.000000 0.000000 0.906073 -6.498692 40.701269 2.155809 5.788757 -0.002643 -55.317347 23.258226 60.214814 0.000000 0.000000 0.000000 3.408181 4.306802 41.428690 6.233262 -8.088813 2.062426 -11.401375 -0.283911 -0.094067 0.000000 0.000000 0.000000
72.789480 74.078432 347.302408 -3.359172 0.081261 -41.559159 -0.352827 0.104425 41.441897 -0.251550 -0.177958 -0.160091 -10.889111 11.715353 -1.536224 0.000000 0.000000 0.000000 12.961543 -1.281284 -2.234286 -4.184764 -10.150548 -0.577606 4.395414 -1.603559 2.287999 -16.750198 -9.422788 -2.803259 0.000000 0.000000 0.000000 0.000000 0.000000 0.000000 -0.053545 -3.103096 -3.408538 4.319290 -25.147572 -8.751133 -27.400191 41.385385 24.112075 74.632363 34.759973 16.760551 0.000000 0.000000 0.000000 0.000000 0.000000 0.000000 0.985015 -6.667231 41.068071 2.147293 5.887294 -0.000117 -59.460214 23.065463 66.504383 0.000000 0.000000 0.000000 3.404101 4.376367 41.800192 6.146517 -8.322932 2.092306 -10.664707 -3.695610 -4.965476 0.000000 0.000000 0.000000
72.771695 74.116071 347.232960 -3.452432 0.185617 -41.947838 -0.334121 0.079886 41.829976 -0.262159 -0.172956 -0.163676 -10.884761 11.767370 -1.574052 0.000000 0.000000 0.000000 13.192762 -1.594059 -2.219291 -3.896645 -10.362763 -0.676389 2.664438 -1.507948 2.491370 -16.055549 -7.443596 -2.041193 0.000000 0.000000 0.000000 0.000000 0.000000 0.000000 0.052404 -3.182739 -3.403881 4.318577 -25.147208 -8.751280 -27.399837 41.383676 24.109454 74.661949 34.851421 16.736318 0.000000 0.000000 0.000000 0.000000 0.000000 0.000000 1.174397 -6.820650 41.452731 2.083573 5.966837 0.007834 -68.050699 19.810451 73.856720 0.000000 0.000000 0.000000 3.654435 4.441321 42.221044 5.983908 -8.330554 2.052361 -9.817811 -4.732687 -8.109407 0.000000 0.000000 0.000000
72.732276 74.143382 347.146241 -3.575074 0.314085 -42.317387 -0.281223 0.062845 42.199509 -0.273694 -0.175925 -0.167697 -10.726830 11.405532 -1.457349 0.000000 0.000000 0.000000 13.356080 -1.819661 -2.195072 -3.676928 -10.526445 -0.753849 1.204710 -0.053468 2.740965 -15.361198 -8.376269 -2.365213 0.000000 0.000000 0.000000 0.000000 0.000000 0.000000 0.158868 -3.261053 -3.398972 4.317870 -25.146831 -8.751428 -27.399768 41.382219 24.107150 74.696631 34.967882 16.706157 0.000000 0.000000 0.000000 0.000000 0.000000 0.000000 1.514608 -6.961590 41.827247 1.840625 6.126151 0.018127 -69.199603 19.648171 77.046513 0.000000 0.000000 0.000000 3.875224 4.508368 42.609310 5.967264 -8.395481 2.057232 -9.328156 -6.975585 -12.159985 0.000000 0.000000 0.000000
72.676980 74.164272 347.086844 -3.703759 0.411354 -42.792185 -0.211479 0.064388 42.674265 -0.277701 -0.180428 -0.170738 -9.779028 10.941174 -1.592407 0.000000 0.000000 0.000000 13.422606 -1.898430 -2.172969 -3.550424 -10.598636 -0.790298 -0.027992 2.337572 3.022016 -15.636121 -9.235679 -2.499210 0.000000 0.000000 0.000000 0.000000 0.000000 0.000000 0.238905 -3.308764 -3.394462 4.317189 -25.146494 -8.751577 -27.399727 41.380890 24.105037 74.696798 34.870354 16.726845 0.000000 0.000000 0.000000 0.000000 0.000000 0.000000 1.862984 -7.046143 42.309483 1.756763 6.261581 0.029605 -63.330911 23.595007 76.698573 0.000000 0.000000 0.000000 4.019718 4.584753 43.089882 6.125839 -8.362768 2.082793 -12.623423 -6.482712 -3.757897 0.000000 0.000000 0.000000
